<?xml version="1.0" encoding="UTF-8" standalone="no"?>
<!DOCTYPE svg PUBLIC "-//W3C//DTD SVG 1.1//EN"
 "http://www.w3.org/Graphics/SVG/1.1/DTD/svg11.dtd">
<!-- Generated by graphviz version 7.0.4 (20221203.1631)
 -->
<!-- Pages: 1 -->
<svg width="998pt" height="548pt"
 viewBox="0.00 0.00 998.00 548.00" xmlns="http://www.w3.org/2000/svg" xmlns:xlink="http://www.w3.org/1999/xlink">
<g id="graph0" class="graph" transform="scale(1 1) rotate(0) translate(4 544)">
<polygon fill="white" stroke="none" points="-4,4 -4,-544 994,-544 994,4 -4,4"/>
<!-- T0 -->
<g id="node1" class="node">
<title>T0</title>
<ellipse fill="none" stroke="black" cx="297" cy="-522" rx="27" ry="18"/>
<text text-anchor="middle" x="297" y="-518.3" font-family="Times New Roman,serif" font-size="14.00">E</text>
</g>
<!-- T1 -->
<g id="node2" class="node">
<title>T1</title>
<ellipse fill="none" stroke="black" cx="207" cy="-450" rx="27" ry="18"/>
<text text-anchor="middle" x="207" y="-446.3" font-family="Times New Roman,serif" font-size="14.00">T</text>
</g>
<!-- T0&#45;&#45;T1 -->
<g id="edge1" class="edge">
<title>T0&#45;&#45;T1</title>
<path fill="none" stroke="black" d="M280.07,-507.83C264.08,-495.4 240.22,-476.84 224.16,-464.35"/>
</g>
<!-- T13 -->
<g id="node14" class="node">
<title>T13</title>
<ellipse fill="none" stroke="black" cx="297" cy="-450" rx="27" ry="18"/>
<text text-anchor="middle" x="297" y="-446.3" font-family="Times New Roman,serif" font-size="14.00">;</text>
</g>
<!-- T0&#45;&#45;T13 -->
<g id="edge13" class="edge">
<title>T0&#45;&#45;T13</title>
<path fill="none" stroke="black" d="M297,-503.7C297,-492.85 297,-478.92 297,-468.1"/>
</g>
<!-- T14 -->
<g id="node15" class="node">
<title>T14</title>
<ellipse fill="none" stroke="black" cx="459" cy="-450" rx="27" ry="18"/>
<text text-anchor="middle" x="459" y="-446.3" font-family="Times New Roman,serif" font-size="14.00">E</text>
</g>
<!-- T0&#45;&#45;T14 -->
<g id="edge14" class="edge">
<title>T0&#45;&#45;T14</title>
<path fill="none" stroke="black" d="M319.19,-511.41C350.04,-498.08 405.58,-474.08 436.56,-460.7"/>
</g>
<!-- T2 -->
<g id="node3" class="node">
<title>T2</title>
<ellipse fill="none" stroke="black" cx="99" cy="-378" rx="27" ry="18"/>
<text text-anchor="middle" x="99" y="-374.3" font-family="Times New Roman,serif" font-size="14.00">F</text>
</g>
<!-- T1&#45;&#45;T2 -->
<g id="edge2" class="edge">
<title>T1&#45;&#45;T2</title>
<path fill="none" stroke="black" d="M188.19,-436.81C168.49,-424.04 137.72,-404.09 117.96,-391.29"/>
</g>
<!-- T7 -->
<g id="node8" class="node">
<title>T7</title>
<ellipse fill="none" stroke="black" cx="171" cy="-378" rx="27" ry="18"/>
<text text-anchor="middle" x="171" y="-374.3" font-family="Times New Roman,serif" font-size="14.00">:</text>
</g>
<!-- T1&#45;&#45;T7 -->
<g id="edge7" class="edge">
<title>T1&#45;&#45;T7</title>
<path fill="none" stroke="black" d="M198.65,-432.76C192.83,-421.46 185.11,-406.44 179.3,-395.15"/>
</g>
<!-- T8 -->
<g id="node9" class="node">
<title>T8</title>
<ellipse fill="none" stroke="black" cx="243" cy="-378" rx="27" ry="18"/>
<text text-anchor="middle" x="243" y="-374.3" font-family="Times New Roman,serif" font-size="14.00">P</text>
</g>
<!-- T1&#45;&#45;T8 -->
<g id="edge8" class="edge">
<title>T1&#45;&#45;T8</title>
<path fill="none" stroke="black" d="M215.35,-432.76C221.17,-421.46 228.89,-406.44 234.7,-395.15"/>
</g>
<!-- T3 -->
<g id="node4" class="node">
<title>T3</title>
<ellipse fill="none" stroke="black" cx="27" cy="-306" rx="27" ry="18"/>
<text text-anchor="middle" x="27" y="-302.3" font-family="Times New Roman,serif" font-size="14.00">Q</text>
</g>
<!-- T2&#45;&#45;T3 -->
<g id="edge3" class="edge">
<title>T2&#45;&#45;T3</title>
<path fill="none" stroke="black" d="M84.08,-362.5C71.72,-350.48 54.25,-333.49 41.9,-321.49"/>
</g>
<!-- T5 -->
<g id="node6" class="node">
<title>T5</title>
<ellipse fill="none" stroke="black" cx="99" cy="-306" rx="27" ry="18"/>
<text text-anchor="middle" x="99" y="-302.3" font-family="Times New Roman,serif" font-size="14.00">V</text>
</g>
<!-- T2&#45;&#45;T5 -->
<g id="edge5" class="edge">
<title>T2&#45;&#45;T5</title>
<path fill="none" stroke="black" d="M99,-359.7C99,-348.85 99,-334.92 99,-324.1"/>
</g>
<!-- T4 -->
<g id="node5" class="node">
<title>T4</title>
<ellipse fill="none" stroke="black" cx="27" cy="-234" rx="27" ry="18"/>
<text text-anchor="middle" x="27" y="-230.3" font-family="Times New Roman,serif" font-size="14.00">var</text>
</g>
<!-- T3&#45;&#45;T4 -->
<g id="edge4" class="edge">
<title>T3&#45;&#45;T4</title>
<path fill="none" stroke="black" d="M27,-287.7C27,-276.85 27,-262.92 27,-252.1"/>
</g>
<!-- T6 -->
<g id="node7" class="node">
<title>T6</title>
<ellipse fill="none" stroke="black" cx="99" cy="-234" rx="27" ry="18"/>
<text text-anchor="middle" x="99" y="-230.3" font-family="Times New Roman,serif" font-size="14.00">b</text>
</g>
<!-- T5&#45;&#45;T6 -->
<g id="edge6" class="edge">
<title>T5&#45;&#45;T6</title>
<path fill="none" stroke="black" d="M99,-287.7C99,-276.85 99,-262.92 99,-252.1"/>
</g>
<!-- T9 -->
<g id="node10" class="node">
<title>T9</title>
<ellipse fill="none" stroke="black" cx="171" cy="-306" rx="27" ry="18"/>
<text text-anchor="middle" x="171" y="-302.3" font-family="Times New Roman,serif" font-size="14.00">H</text>
</g>
<!-- T8&#45;&#45;T9 -->
<g id="edge9" class="edge">
<title>T8&#45;&#45;T9</title>
<path fill="none" stroke="black" d="M228.08,-362.5C215.72,-350.48 198.25,-333.49 185.9,-321.49"/>
</g>
<!-- T11 -->
<g id="node12" class="node">
<title>T11</title>
<ellipse fill="none" stroke="black" cx="243" cy="-306" rx="27" ry="18"/>
<text text-anchor="middle" x="243" y="-302.3" font-family="Times New Roman,serif" font-size="14.00">B</text>
</g>
<!-- T8&#45;&#45;T11 -->
<g id="edge11" class="edge">
<title>T8&#45;&#45;T11</title>
<path fill="none" stroke="black" d="M243,-359.7C243,-348.85 243,-334.92 243,-324.1"/>
</g>
<!-- T10 -->
<g id="node11" class="node">
<title>T10</title>
<ellipse fill="none" stroke="black" cx="171" cy="-234" rx="27" ry="18"/>
<text text-anchor="middle" x="171" y="-230.3" font-family="Times New Roman,serif" font-size="14.00">Int</text>
</g>
<!-- T9&#45;&#45;T10 -->
<g id="edge10" class="edge">
<title>T9&#45;&#45;T10</title>
<path fill="none" stroke="black" d="M171,-287.7C171,-276.85 171,-262.92 171,-252.1"/>
</g>
<!-- T12 -->
<g id="node13" class="node">
<title>T12</title>
<ellipse fill="none" stroke="black" cx="243" cy="-234" rx="27" ry="18"/>
<text text-anchor="middle" x="243" y="-230.3" font-family="Times New Roman,serif" font-size="14.00">eps</text>
</g>
<!-- T11&#45;&#45;T12 -->
<g id="edge12" class="edge">
<title>T11&#45;&#45;T12</title>
<path fill="none" stroke="black" d="M243,-287.7C243,-276.85 243,-262.92 243,-252.1"/>
</g>
<!-- T15 -->
<g id="node16" class="node">
<title>T15</title>
<ellipse fill="none" stroke="black" cx="423" cy="-378" rx="27" ry="18"/>
<text text-anchor="middle" x="423" y="-374.3" font-family="Times New Roman,serif" font-size="14.00">T</text>
</g>
<!-- T14&#45;&#45;T15 -->
<g id="edge15" class="edge">
<title>T14&#45;&#45;T15</title>
<path fill="none" stroke="black" d="M450.65,-432.76C444.83,-421.46 437.11,-406.44 431.3,-395.15"/>
</g>
<!-- T29 -->
<g id="node30" class="node">
<title>T29</title>
<ellipse fill="none" stroke="black" cx="495" cy="-378" rx="27" ry="18"/>
<text text-anchor="middle" x="495" y="-374.3" font-family="Times New Roman,serif" font-size="14.00">;</text>
</g>
<!-- T14&#45;&#45;T29 -->
<g id="edge29" class="edge">
<title>T14&#45;&#45;T29</title>
<path fill="none" stroke="black" d="M467.35,-432.76C473.17,-421.46 480.89,-406.44 486.7,-395.15"/>
</g>
<!-- T30 -->
<g id="node31" class="node">
<title>T30</title>
<ellipse fill="none" stroke="black" cx="783" cy="-378" rx="27" ry="18"/>
<text text-anchor="middle" x="783" y="-374.3" font-family="Times New Roman,serif" font-size="14.00">E</text>
</g>
<!-- T14&#45;&#45;T30 -->
<g id="edge30" class="edge">
<title>T14&#45;&#45;T30</title>
<path fill="none" stroke="black" d="M484.69,-443.45C545.31,-430.35 696.68,-397.65 757.3,-384.55"/>
</g>
<!-- T16 -->
<g id="node17" class="node">
<title>T16</title>
<ellipse fill="none" stroke="black" cx="351" cy="-306" rx="27" ry="18"/>
<text text-anchor="middle" x="351" y="-302.3" font-family="Times New Roman,serif" font-size="14.00">F</text>
</g>
<!-- T15&#45;&#45;T16 -->
<g id="edge16" class="edge">
<title>T15&#45;&#45;T16</title>
<path fill="none" stroke="black" d="M408.08,-362.5C395.72,-350.48 378.25,-333.49 365.9,-321.49"/>
</g>
<!-- T21 -->
<g id="node22" class="node">
<title>T21</title>
<ellipse fill="none" stroke="black" cx="423" cy="-306" rx="27" ry="18"/>
<text text-anchor="middle" x="423" y="-302.3" font-family="Times New Roman,serif" font-size="14.00">:</text>
</g>
<!-- T15&#45;&#45;T21 -->
<g id="edge21" class="edge">
<title>T15&#45;&#45;T21</title>
<path fill="none" stroke="black" d="M423,-359.7C423,-348.85 423,-334.92 423,-324.1"/>
</g>
<!-- T22 -->
<g id="node23" class="node">
<title>T22</title>
<ellipse fill="none" stroke="black" cx="495" cy="-306" rx="27" ry="18"/>
<text text-anchor="middle" x="495" y="-302.3" font-family="Times New Roman,serif" font-size="14.00">P</text>
</g>
<!-- T15&#45;&#45;T22 -->
<g id="edge22" class="edge">
<title>T15&#45;&#45;T22</title>
<path fill="none" stroke="black" d="M437.92,-362.5C450.28,-350.48 467.75,-333.49 480.1,-321.49"/>
</g>
<!-- T17 -->
<g id="node18" class="node">
<title>T17</title>
<ellipse fill="none" stroke="black" cx="315" cy="-234" rx="27" ry="18"/>
<text text-anchor="middle" x="315" y="-230.3" font-family="Times New Roman,serif" font-size="14.00">Q</text>
</g>
<!-- T16&#45;&#45;T17 -->
<g id="edge17" class="edge">
<title>T16&#45;&#45;T17</title>
<path fill="none" stroke="black" d="M342.65,-288.76C336.83,-277.46 329.11,-262.44 323.3,-251.15"/>
</g>
<!-- T19 -->
<g id="node20" class="node">
<title>T19</title>
<ellipse fill="none" stroke="black" cx="387" cy="-234" rx="27" ry="18"/>
<text text-anchor="middle" x="387" y="-230.3" font-family="Times New Roman,serif" font-size="14.00">V</text>
</g>
<!-- T16&#45;&#45;T19 -->
<g id="edge19" class="edge">
<title>T16&#45;&#45;T19</title>
<path fill="none" stroke="black" d="M359.35,-288.76C365.17,-277.46 372.89,-262.44 378.7,-251.15"/>
</g>
<!-- T18 -->
<g id="node19" class="node">
<title>T18</title>
<ellipse fill="none" stroke="black" cx="315" cy="-162" rx="27" ry="18"/>
<text text-anchor="middle" x="315" y="-158.3" font-family="Times New Roman,serif" font-size="14.00">val</text>
</g>
<!-- T17&#45;&#45;T18 -->
<g id="edge18" class="edge">
<title>T17&#45;&#45;T18</title>
<path fill="none" stroke="black" d="M315,-215.7C315,-204.85 315,-190.92 315,-180.1"/>
</g>
<!-- T20 -->
<g id="node21" class="node">
<title>T20</title>
<ellipse fill="none" stroke="black" cx="387" cy="-162" rx="27" ry="18"/>
<text text-anchor="middle" x="387" y="-158.3" font-family="Times New Roman,serif" font-size="14.00">a</text>
</g>
<!-- T19&#45;&#45;T20 -->
<g id="edge20" class="edge">
<title>T19&#45;&#45;T20</title>
<path fill="none" stroke="black" d="M387,-215.7C387,-204.85 387,-190.92 387,-180.1"/>
</g>
<!-- T23 -->
<g id="node24" class="node">
<title>T23</title>
<ellipse fill="none" stroke="black" cx="459" cy="-234" rx="27" ry="18"/>
<text text-anchor="middle" x="459" y="-230.3" font-family="Times New Roman,serif" font-size="14.00">H</text>
</g>
<!-- T22&#45;&#45;T23 -->
<g id="edge23" class="edge">
<title>T22&#45;&#45;T23</title>
<path fill="none" stroke="black" d="M486.65,-288.76C480.83,-277.46 473.11,-262.44 467.3,-251.15"/>
</g>
<!-- T25 -->
<g id="node26" class="node">
<title>T25</title>
<ellipse fill="none" stroke="black" cx="531" cy="-234" rx="27" ry="18"/>
<text text-anchor="middle" x="531" y="-230.3" font-family="Times New Roman,serif" font-size="14.00">B</text>
</g>
<!-- T22&#45;&#45;T25 -->
<g id="edge25" class="edge">
<title>T22&#45;&#45;T25</title>
<path fill="none" stroke="black" d="M503.35,-288.76C509.17,-277.46 516.89,-262.44 522.7,-251.15"/>
</g>
<!-- T24 -->
<g id="node25" class="node">
<title>T24</title>
<ellipse fill="none" stroke="black" cx="459" cy="-162" rx="27" ry="18"/>
<text text-anchor="middle" x="459" y="-158.3" font-family="Times New Roman,serif" font-size="14.00">Int</text>
</g>
<!-- T23&#45;&#45;T24 -->
<g id="edge24" class="edge">
<title>T23&#45;&#45;T24</title>
<path fill="none" stroke="black" d="M459,-215.7C459,-204.85 459,-190.92 459,-180.1"/>
</g>
<!-- T26 -->
<g id="node27" class="node">
<title>T26</title>
<ellipse fill="none" stroke="black" cx="531" cy="-162" rx="27" ry="18"/>
<text text-anchor="middle" x="531" y="-158.3" font-family="Times New Roman,serif" font-size="14.00">=</text>
</g>
<!-- T25&#45;&#45;T26 -->
<g id="edge26" class="edge">
<title>T25&#45;&#45;T26</title>
<path fill="none" stroke="black" d="M531,-215.7C531,-204.85 531,-190.92 531,-180.1"/>
</g>
<!-- T27 -->
<g id="node28" class="node">
<title>T27</title>
<ellipse fill="none" stroke="black" cx="603" cy="-162" rx="27" ry="18"/>
<text text-anchor="middle" x="603" y="-158.3" font-family="Times New Roman,serif" font-size="14.00">A</text>
</g>
<!-- T25&#45;&#45;T27 -->
<g id="edge27" class="edge">
<title>T25&#45;&#45;T27</title>
<path fill="none" stroke="black" d="M545.92,-218.5C558.28,-206.48 575.75,-189.49 588.1,-177.49"/>
</g>
<!-- T28 -->
<g id="node29" class="node">
<title>T28</title>
<ellipse fill="none" stroke="black" cx="603" cy="-90" rx="27" ry="18"/>
<text text-anchor="middle" x="603" y="-86.3" font-family="Times New Roman,serif" font-size="14.00">5</text>
</g>
<!-- T27&#45;&#45;T28 -->
<g id="edge28" class="edge">
<title>T27&#45;&#45;T28</title>
<path fill="none" stroke="black" d="M603,-143.7C603,-132.85 603,-118.92 603,-108.1"/>
</g>
<!-- T31 -->
<g id="node32" class="node">
<title>T31</title>
<ellipse fill="none" stroke="black" cx="747" cy="-306" rx="27" ry="18"/>
<text text-anchor="middle" x="747" y="-302.3" font-family="Times New Roman,serif" font-size="14.00">T</text>
</g>
<!-- T30&#45;&#45;T31 -->
<g id="edge31" class="edge">
<title>T30&#45;&#45;T31</title>
<path fill="none" stroke="black" d="M774.65,-360.76C768.83,-349.46 761.11,-334.44 755.3,-323.15"/>
</g>
<!-- T45 -->
<g id="node46" class="node">
<title>T45</title>
<ellipse fill="none" stroke="black" cx="819" cy="-306" rx="27" ry="18"/>
<text text-anchor="middle" x="819" y="-302.3" font-family="Times New Roman,serif" font-size="14.00">;</text>
</g>
<!-- T30&#45;&#45;T45 -->
<g id="edge45" class="edge">
<title>T30&#45;&#45;T45</title>
<path fill="none" stroke="black" d="M791.35,-360.76C797.17,-349.46 804.89,-334.44 810.7,-323.15"/>
</g>
<!-- T46 -->
<g id="node47" class="node">
<title>T46</title>
<ellipse fill="none" stroke="black" cx="891" cy="-306" rx="27" ry="18"/>
<text text-anchor="middle" x="891" y="-302.3" font-family="Times New Roman,serif" font-size="14.00">E</text>
</g>
<!-- T30&#45;&#45;T46 -->
<g id="edge46" class="edge">
<title>T30&#45;&#45;T46</title>
<path fill="none" stroke="black" d="M801.81,-364.81C821.51,-352.04 852.28,-332.09 872.04,-319.29"/>
</g>
<!-- T32 -->
<g id="node33" class="node">
<title>T32</title>
<ellipse fill="none" stroke="black" cx="675" cy="-234" rx="27" ry="18"/>
<text text-anchor="middle" x="675" y="-230.3" font-family="Times New Roman,serif" font-size="14.00">F</text>
</g>
<!-- T31&#45;&#45;T32 -->
<g id="edge32" class="edge">
<title>T31&#45;&#45;T32</title>
<path fill="none" stroke="black" d="M732.08,-290.5C719.72,-278.48 702.25,-261.49 689.9,-249.49"/>
</g>
<!-- T37 -->
<g id="node38" class="node">
<title>T37</title>
<ellipse fill="none" stroke="black" cx="747" cy="-234" rx="27" ry="18"/>
<text text-anchor="middle" x="747" y="-230.3" font-family="Times New Roman,serif" font-size="14.00">:</text>
</g>
<!-- T31&#45;&#45;T37 -->
<g id="edge37" class="edge">
<title>T31&#45;&#45;T37</title>
<path fill="none" stroke="black" d="M747,-287.7C747,-276.85 747,-262.92 747,-252.1"/>
</g>
<!-- T38 -->
<g id="node39" class="node">
<title>T38</title>
<ellipse fill="none" stroke="black" cx="819" cy="-234" rx="27" ry="18"/>
<text text-anchor="middle" x="819" y="-230.3" font-family="Times New Roman,serif" font-size="14.00">P</text>
</g>
<!-- T31&#45;&#45;T38 -->
<g id="edge38" class="edge">
<title>T31&#45;&#45;T38</title>
<path fill="none" stroke="black" d="M761.92,-290.5C774.28,-278.48 791.75,-261.49 804.1,-249.49"/>
</g>
<!-- T33 -->
<g id="node34" class="node">
<title>T33</title>
<ellipse fill="none" stroke="black" cx="675" cy="-162" rx="27" ry="18"/>
<text text-anchor="middle" x="675" y="-158.3" font-family="Times New Roman,serif" font-size="14.00">Q</text>
</g>
<!-- T32&#45;&#45;T33 -->
<g id="edge33" class="edge">
<title>T32&#45;&#45;T33</title>
<path fill="none" stroke="black" d="M675,-215.7C675,-204.85 675,-190.92 675,-180.1"/>
</g>
<!-- T35 -->
<g id="node36" class="node">
<title>T35</title>
<ellipse fill="none" stroke="black" cx="747" cy="-162" rx="27" ry="18"/>
<text text-anchor="middle" x="747" y="-158.3" font-family="Times New Roman,serif" font-size="14.00">V</text>
</g>
<!-- T32&#45;&#45;T35 -->
<g id="edge35" class="edge">
<title>T32&#45;&#45;T35</title>
<path fill="none" stroke="black" d="M689.92,-218.5C702.28,-206.48 719.75,-189.49 732.1,-177.49"/>
</g>
<!-- T34 -->
<g id="node35" class="node">
<title>T34</title>
<ellipse fill="none" stroke="black" cx="675" cy="-90" rx="27" ry="18"/>
<text text-anchor="middle" x="675" y="-86.3" font-family="Times New Roman,serif" font-size="14.00">val</text>
</g>
<!-- T33&#45;&#45;T34 -->
<g id="edge34" class="edge">
<title>T33&#45;&#45;T34</title>
<path fill="none" stroke="black" d="M675,-143.7C675,-132.85 675,-118.92 675,-108.1"/>
</g>
<!-- T36 -->
<g id="node37" class="node">
<title>T36</title>
<ellipse fill="none" stroke="black" cx="747" cy="-90" rx="27" ry="18"/>
<text text-anchor="middle" x="747" y="-86.3" font-family="Times New Roman,serif" font-size="14.00">c</text>
</g>
<!-- T35&#45;&#45;T36 -->
<g id="edge36" class="edge">
<title>T35&#45;&#45;T36</title>
<path fill="none" stroke="black" d="M747,-143.7C747,-132.85 747,-118.92 747,-108.1"/>
</g>
<!-- T39 -->
<g id="node40" class="node">
<title>T39</title>
<ellipse fill="none" stroke="black" cx="819" cy="-162" rx="27" ry="18"/>
<text text-anchor="middle" x="819" y="-158.3" font-family="Times New Roman,serif" font-size="14.00">H</text>
</g>
<!-- T38&#45;&#45;T39 -->
<g id="edge39" class="edge">
<title>T38&#45;&#45;T39</title>
<path fill="none" stroke="black" d="M819,-215.7C819,-204.85 819,-190.92 819,-180.1"/>
</g>
<!-- T41 -->
<g id="node42" class="node">
<title>T41</title>
<ellipse fill="none" stroke="black" cx="891" cy="-162" rx="27" ry="18"/>
<text text-anchor="middle" x="891" y="-158.3" font-family="Times New Roman,serif" font-size="14.00">B</text>
</g>
<!-- T38&#45;&#45;T41 -->
<g id="edge41" class="edge">
<title>T38&#45;&#45;T41</title>
<path fill="none" stroke="black" d="M833.92,-218.5C846.28,-206.48 863.75,-189.49 876.1,-177.49"/>
</g>
<!-- T40 -->
<g id="node41" class="node">
<title>T40</title>
<ellipse fill="none" stroke="black" cx="819" cy="-90" rx="27" ry="18"/>
<text text-anchor="middle" x="819" y="-86.3" font-family="Times New Roman,serif" font-size="14.00">Int</text>
</g>
<!-- T39&#45;&#45;T40 -->
<g id="edge40" class="edge">
<title>T39&#45;&#45;T40</title>
<path fill="none" stroke="black" d="M819,-143.7C819,-132.85 819,-118.92 819,-108.1"/>
</g>
<!-- T42 -->
<g id="node43" class="node">
<title>T42</title>
<ellipse fill="none" stroke="black" cx="891" cy="-90" rx="27" ry="18"/>
<text text-anchor="middle" x="891" y="-86.3" font-family="Times New Roman,serif" font-size="14.00">=</text>
</g>
<!-- T41&#45;&#45;T42 -->
<g id="edge42" class="edge">
<title>T41&#45;&#45;T42</title>
<path fill="none" stroke="black" d="M891,-143.7C891,-132.85 891,-118.92 891,-108.1"/>
</g>
<!-- T43 -->
<g id="node44" class="node">
<title>T43</title>
<ellipse fill="none" stroke="black" cx="963" cy="-90" rx="27" ry="18"/>
<text text-anchor="middle" x="963" y="-86.3" font-family="Times New Roman,serif" font-size="14.00">A</text>
</g>
<!-- T41&#45;&#45;T43 -->
<g id="edge43" class="edge">
<title>T41&#45;&#45;T43</title>
<path fill="none" stroke="black" d="M905.92,-146.5C918.28,-134.48 935.75,-117.49 948.1,-105.49"/>
</g>
<!-- T44 -->
<g id="node45" class="node">
<title>T44</title>
<ellipse fill="none" stroke="black" cx="963" cy="-18" rx="27" ry="18"/>
<text text-anchor="middle" x="963" y="-14.3" font-family="Times New Roman,serif" font-size="14.00">102</text>
</g>
<!-- T43&#45;&#45;T44 -->
<g id="edge44" class="edge">
<title>T43&#45;&#45;T44</title>
<path fill="none" stroke="black" d="M963,-71.7C963,-60.85 963,-46.92 963,-36.1"/>
</g>
<!-- T47 -->
<g id="node48" class="node">
<title>T47</title>
<ellipse fill="none" stroke="black" cx="891" cy="-234" rx="27" ry="18"/>
<text text-anchor="middle" x="891" y="-230.3" font-family="Times New Roman,serif" font-size="14.00">eps</text>
</g>
<!-- T46&#45;&#45;T47 -->
<g id="edge47" class="edge">
<title>T46&#45;&#45;T47</title>
<path fill="none" stroke="black" d="M891,-287.7C891,-276.85 891,-262.92 891,-252.1"/>
</g>
</g>
</svg>
